<svg xmlns="http://www.w3.org/2000/svg" class="diagram" data-model="20" width="30020" height="30020"><style>svg{font-family:"Helvetica Neue",Helvetica,sans-serif;font-size:12px;background-color:#fff}svg .note .border{fill:#f9ed5a;stroke:#b5af62}svg .cont .border,svg .node .border,svg .caption .border{fill:#fff;stroke:#000}svg .cont .sep,svg .node .sep,svg .caption .sep{stroke:#000}svg .cont .head{stroke:none;fill:none;fill-opacity:.5}svg .cont .border{fill-opacity:.2}svg .cont text{font-weight:bold}svg .node .item rect{fill:none;stroke:none}svg .node .item text{dominant-baseline:text-after-edge;alignment-baseline:after-edge;fill:#000}svg .node .item.title rect{fill-opacity:.3}svg .node .item.title text{font-weight:bold}svg .node .item.empty text{text-anchor:middle}svg .caption text.title{font-weight:bold}svg .resize{fill:none;stroke:transparent;stroke-opacity:0;stroke-width:5px}svg .shape{fill:#fff;stroke:#000}svg .shape-title{font-weight:bold;fill:#000;dominant-baseline:text-after-edge;alignment-baseline:after-edge;text-anchor:middle}svg .link .border{fill:none;stroke:transparent;stroke-opacity:0;stroke-width:10px}svg .link .road{fill:none;stroke:#000;stroke-width:1.5;stroke-linejoin:round;stroke-linecap:round}svg .link .road.dashed{stroke-dasharray:5}svg .link .link-label{text-anchor:middle}</style><defs><filter id="shadow" height="130%"><feGaussianBlur in="SourceAlpha" stdDeviation="3"></feGaussianBlur><feOffset dx="2" dy="2" result="offsetblur"></feOffset><feComponentTransfer><feFuncA type="linear" slope="0.5"></feFuncA></feComponentTransfer><feMerge><feMergeNode></feMergeNode><feMergeNode in="SourceGraphic"></feMergeNode></feMerge></filter><marker id="start_1" markerWidth="12" markerHeight="12" refX="2" refY="6" orient="auto" markerUnits="strokeWidth"><path d="M10,2 L2,6 L10,10" fill="none" stroke="#000"></path></marker><marker id="end_1" markerWidth="12" markerHeight="12" refX="11" refY="6" orient="auto" markerUnits="strokeWidth"><path d="M2,2 L10,6 L2,10" fill="none" stroke="#000"></path></marker><marker id="start_2" markerWidth="12" markerHeight="12" refX="2" refY="6" orient="auto" markerUnits="strokeWidth"><path d="M10,2 L2,6 L10,10z" fill="#fff" stroke="#000"></path></marker><marker id="end_2" markerWidth="12" markerHeight="12" refX="11" refY="6" orient="auto" markerUnits="strokeWidth"><path d="M2,2 L10,6 L2,10z" fill="#fff" stroke="#000"></path></marker><marker id="start_3" markerWidth="22" markerHeight="12" refX="2" refY="6" orient="auto" markerUnits="strokeWidth"><path d="M10,2 L2,6 L10,10 L18,6z" fill="#000" stroke="#000"></path></marker><marker id="end_3" markerWidth="22" markerHeight="12" refX="19" refY="6" orient="auto" markerUnits="strokeWidth"><path d="M10,2 L2,6 L10,10 L18,6z" fill="#000" stroke="#000"></path></marker><marker id="start_4" markerWidth="22" markerHeight="12" refX="2" refY="6" orient="auto" markerUnits="strokeWidth"><path d="M10,2 L2,6 L10,10 L18,6z" fill="#fff" stroke="#000"></path></marker><marker id="end_4" markerWidth="22" markerHeight="12" refX="19" refY="6" orient="auto" markerUnits="strokeWidth"><path d="M10,2 L2,6 L10,10 L18,6z" fill="#fff" stroke="#000"></path></marker><marker id="start_6" markerWidth="16" markerHeight="16" refX="2" refY="8" orient="auto" markerUnits="strokeWidth"><path d="M0,0 L16,8 L0,16" fill="none" stroke="#000"></path></marker><marker id="end_6" markerWidth="12" markerHeight="16" refX="15" refY="8" orient="auto" markerUnits="strokeWidth"><path d="M16,0 L0,8 L16,16" fill="none" stroke="#000"></path></marker><pattern id="grid" width="20" height="20" patternUnits="userSpaceOnUse"><path d="M 20 0 L 0 0 0 20" stroke="#999" stroke-width="0.3" fill="none"></path></pattern></defs><g class="viewport" data-grid="20" transform="matrix(1 0 0 1 0 0)" data-zoom="1" data-x="0" data-y="0"><g class="background"><g class="grid"><rect x="-30000" y="-30000" width="60000" height="60000" fill="url(#grid)"></rect><line x1="-30000" y1="0" x2="30000" y2="0" class="axis"></line><line x1="0" y1="-30000" x2="0" y2="30000" class="axis"></line></g></g><g class="body"><g class="containers"></g><g class="links"><g data-render="0" data-label="true" class="link" data-obj="BPMStateTransition" data-id="149" data-from="BPMState" data-fromid="80" data-to="BPMState" data-toid="81" data-tpl="Transition" data-keys="{&quot;stm_name&quot;:&quot;PM_TSK_STATUT-CLOSED-CANCEL&quot;}"><path d="M 1049 405 L 847 69" class="road curved bridge" marker-end="url(#end_1)" style="stroke: rgb(0, 0, 0); stroke-width: 1.2px;"></path><text class="link-label" transform="rotate(59 948,237)"><tspan x="948" y="237" dy="1.2em">ADMIN</tspan><tspan x="948" y="237" dy="2.4em">ADMIN</tspan><tspan x="948" y="237" dy="3.5999999999999996em">ADMIN</tspan><tspan x="948" y="237" dy="4.8em">PM_MANAGER</tspan><tspan x="948" y="237" dy="6em">PM_MANAGER</tspan><tspan x="948" y="237" dy="7.199999999999999em">PM_MANAGER</tspan><tspan x="948" y="237" dy="8.4em">PM_SUPERADMIN</tspan><tspan x="948" y="237" dy="9.6em">PM_SUPERADMIN</tspan><tspan x="948" y="237" dy="10.799999999999999em">PM_SUPERADMIN</tspan></text></g><g data-render="0" data-label="true" class="link" data-obj="BPMStateTransition" data-id="155" data-from="BPMState" data-fromid="81" data-to="BPMState" data-toid="80" data-tpl="Transition" data-keys="{&quot;stm_name&quot;:&quot;PM_TSK_STATUT-CANCEL-CLOSED&quot;}"><path d="M 847 69 L 1049 405" class="road curved bridge" marker-end="url(#end_1)" style="stroke: rgb(0, 0, 0); stroke-width: 1.2px;"></path><text class="link-label" transform="rotate(59 948,237)"><tspan x="948" y="237" dy="1.2em">ADMIN</tspan><tspan x="948" y="237" dy="2.4em">ADMIN</tspan><tspan x="948" y="237" dy="3.5999999999999996em">ADMIN</tspan><tspan x="948" y="237" dy="4.8em">PM_MANAGER</tspan><tspan x="948" y="237" dy="6em">PM_MANAGER</tspan><tspan x="948" y="237" dy="7.199999999999999em">PM_MANAGER</tspan><tspan x="948" y="237" dy="8.4em">PM_SUPERADMIN</tspan><tspan x="948" y="237" dy="9.6em">PM_SUPERADMIN</tspan><tspan x="948" y="237" dy="10.799999999999999em">PM_SUPERADMIN</tspan></text></g><g data-render="0" data-label="true" class="link" data-obj="BPMStateTransition" data-id="142" data-from="BPMState" data-fromid="78" data-to="BPMState" data-toid="81" data-tpl="Transition" data-keys="{&quot;stm_name&quot;:&quot;PM_TSK_STATUT-DOING-CANCEL&quot;}"><path d="M 585 432 L 818 69" class="road curved bridge" marker-end="url(#end_1)" style="stroke: rgb(0, 0, 0); stroke-width: 1.2px;"></path><text class="link-label" transform="rotate(-57 702,251)"><tspan x="702" y="251" dy="1.2em">ADMIN</tspan><tspan x="702" y="251" dy="2.4em">ADMIN</tspan><tspan x="702" y="251" dy="3.5999999999999996em">ADMIN</tspan><tspan x="702" y="251" dy="4.8em">PM_MANAGER</tspan><tspan x="702" y="251" dy="6em">PM_MANAGER</tspan><tspan x="702" y="251" dy="7.199999999999999em">PM_MANAGER</tspan><tspan x="702" y="251" dy="8.4em">PM_SUPERADMIN</tspan><tspan x="702" y="251" dy="9.6em">PM_SUPERADMIN</tspan><tspan x="702" y="251" dy="10.799999999999999em">PM_SUPERADMIN</tspan></text></g><g data-render="0" data-label="true" class="link" data-obj="BPMStateTransition" data-id="153" data-from="BPMState" data-fromid="81" data-to="BPMState" data-toid="78" data-tpl="Transition" data-keys="{&quot;stm_name&quot;:&quot;PM_TSK_STATUT-CANCEL-DOING&quot;}"><path d="M 818 69 L 724.0102553586834 215.43037469870364 A 4 4 0 0 0 719.6888825601078 222.16281386558308 L 669.5757154630154 300.23611711126773 A 4 4 0 0 0 665.2543426644398 306.96855627814716 L 585 432" class="road curved bridge" marker-end="url(#end_1)" style="stroke: rgb(0, 0, 0); stroke-width: 1.2px;"></path><text class="link-label" transform="rotate(-57 702,251)"><tspan x="702" y="251" dy="1.2em">ADMIN</tspan><tspan x="702" y="251" dy="2.4em">ADMIN</tspan><tspan x="702" y="251" dy="3.5999999999999996em">ADMIN</tspan><tspan x="702" y="251" dy="4.8em">PM_MANAGER</tspan><tspan x="702" y="251" dy="6em">PM_MANAGER</tspan><tspan x="702" y="251" dy="7.199999999999999em">PM_MANAGER</tspan><tspan x="702" y="251" dy="8.4em">PM_SUPERADMIN</tspan><tspan x="702" y="251" dy="9.6em">PM_SUPERADMIN</tspan><tspan x="702" y="251" dy="10.799999999999999em">PM_SUPERADMIN</tspan></text></g><g data-render="0" data-label="true" class="link" data-obj="BPMStateTransition" data-id="146" data-from="BPMState" data-fromid="79" data-to="BPMState" data-toid="81" data-tpl="Transition" data-keys="{&quot;stm_name&quot;:&quot;PM_TSK_STATUT-DONE-CANCEL&quot;}"><path d="M 806 435 L 832 69" class="road curved bridge" marker-end="url(#end_1)" style="stroke: rgb(0, 0, 0); stroke-width: 1.2px;"></path><text class="link-label" transform="rotate(-86 819,252)"><tspan x="819" y="252" dy="1.2em">ADMIN</tspan><tspan x="819" y="252" dy="2.4em">ADMIN</tspan><tspan x="819" y="252" dy="3.5999999999999996em">ADMIN</tspan><tspan x="819" y="252" dy="4.8em">PM_MANAGER</tspan><tspan x="819" y="252" dy="6em">PM_MANAGER</tspan><tspan x="819" y="252" dy="7.199999999999999em">PM_MANAGER</tspan><tspan x="819" y="252" dy="8.4em">PM_SUPERADMIN</tspan><tspan x="819" y="252" dy="9.6em">PM_SUPERADMIN</tspan><tspan x="819" y="252" dy="10.799999999999999em">PM_SUPERADMIN</tspan></text></g><g data-render="0" data-label="true" class="link" data-obj="BPMStateTransition" data-id="145" data-from="BPMState" data-fromid="79" data-to="BPMState" data-toid="80" data-tpl="Transition" data-keys="{&quot;stm_name&quot;:&quot;PM_TSK_STATUT-DONE-CLOSED&quot;}"><path d="M 868 450 L 995 435" class="road curved bridge" marker-end="url(#end_1)" style="stroke: rgb(0, 0, 0); stroke-width: 1.2px;"></path><text class="link-label" transform="rotate(-7 932,443)"><tspan x="932" y="443" dy="1.2em">ADMIN</tspan><tspan x="932" y="443" dy="2.4em">ADMIN</tspan><tspan x="932" y="443" dy="3.5999999999999996em">ADMIN</tspan><tspan x="932" y="443" dy="4.8em">PM_MANAGER</tspan><tspan x="932" y="443" dy="6em">PM_MANAGER</tspan><tspan x="932" y="443" dy="7.199999999999999em">PM_MANAGER</tspan><tspan x="932" y="443" dy="8.4em">PM_SUPERADMIN</tspan><tspan x="932" y="443" dy="9.6em">PM_SUPERADMIN</tspan><tspan x="932" y="443" dy="10.799999999999999em">PM_SUPERADMIN</tspan></text></g><g data-render="0" data-label="true" class="link" data-obj="BPMStateTransition" data-id="144" data-from="BPMState" data-fromid="79" data-to="BPMState" data-toid="78" data-tpl="Transition" data-keys="{&quot;stm_name&quot;:&quot;PM_TSK_STATUT-DONE-DOING&quot;}"><path d="M 741 457 L 634 457" class="road curved bridge" marker-end="url(#end_1)" style="stroke: rgb(0, 0, 0); stroke-width: 1.2px;"></path><text class="link-label"><tspan x="688" y="457" dy="1.2em">PM_MANAGER</tspan><tspan x="688" y="457" dy="2.4em">PM_MANAGER</tspan><tspan x="688" y="457" dy="3.5999999999999996em">PM_MANAGER</tspan><tspan x="688" y="457" dy="4.8em">PM_SUPERADMIN</tspan><tspan x="688" y="457" dy="6em">PM_SUPERADMIN</tspan><tspan x="688" y="457" dy="7.199999999999999em">PM_SUPERADMIN</tspan></text></g><g data-render="0" data-label="true" class="link" data-obj="BPMStateTransition" data-id="154" data-from="BPMState" data-fromid="81" data-to="BPMState" data-toid="79" data-tpl="Transition" data-keys="{&quot;stm_name&quot;:&quot;PM_TSK_STATUT-CANCEL-DONE&quot;}"><path d="M 832 69 L 817.4948448430216 273.1879533636188 A 4 4 0 0 0 816.9279673866802 281.1678437105779 L 806 435" class="road curved bridge" marker-end="url(#end_1)" style="stroke: rgb(0, 0, 0); stroke-width: 1.2px;"></path><text class="link-label" transform="rotate(-86 819,252)"><tspan x="819" y="252" dy="1.2em">ADMIN</tspan><tspan x="819" y="252" dy="2.4em">ADMIN</tspan><tspan x="819" y="252" dy="3.5999999999999996em">ADMIN</tspan><tspan x="819" y="252" dy="4.8em">PM_MANAGER</tspan><tspan x="819" y="252" dy="6em">PM_MANAGER</tspan><tspan x="819" y="252" dy="7.199999999999999em">PM_MANAGER</tspan><tspan x="819" y="252" dy="8.4em">PM_SUPERADMIN</tspan><tspan x="819" y="252" dy="9.6em">PM_SUPERADMIN</tspan><tspan x="819" y="252" dy="10.799999999999999em">PM_SUPERADMIN</tspan></text></g><g data-render="0" data-label="true" class="link" data-obj="BPMStateTransition" data-id="148" data-from="BPMState" data-fromid="80" data-to="BPMState" data-toid="79" data-tpl="Transition" data-keys="{&quot;stm_name&quot;:&quot;PM_TSK_STATUT-CLOSED-DONE&quot;}"><path d="M 995 435 L 868 450" class="road curved bridge" marker-end="url(#end_1)" style="stroke: rgb(0, 0, 0); stroke-width: 1.2px;"></path><text class="link-label" transform="rotate(-7 932,443)"><tspan x="932" y="443" dy="1.2em">ADMIN</tspan><tspan x="932" y="443" dy="2.4em">ADMIN</tspan><tspan x="932" y="443" dy="3.5999999999999996em">ADMIN</tspan><tspan x="932" y="443" dy="4.8em">PM_MANAGER</tspan><tspan x="932" y="443" dy="6em">PM_MANAGER</tspan><tspan x="932" y="443" dy="7.199999999999999em">PM_MANAGER</tspan><tspan x="932" y="443" dy="8.4em">PM_SUPERADMIN</tspan><tspan x="932" y="443" dy="9.6em">PM_SUPERADMIN</tspan><tspan x="932" y="443" dy="10.799999999999999em">PM_SUPERADMIN</tspan></text></g><g data-render="0" data-label="true" class="link" data-obj="BPMStateTransition" data-id="141" data-from="BPMState" data-fromid="78" data-to="BPMState" data-toid="79" data-tpl="Transition" data-keys="{&quot;stm_name&quot;:&quot;PM_TSK_STATUT-DOING-DONE&quot;}"><path d="M 634 457 L 741 457" class="road curved bridge" marker-end="url(#end_1)" style="stroke: rgb(0, 0, 0); stroke-width: 1.2px;"></path><text class="link-label"><tspan x="688" y="457" dy="1.2em">ADMIN</tspan><tspan x="688" y="457" dy="2.4em">ADMIN</tspan><tspan x="688" y="457" dy="3.5999999999999996em">ADMIN</tspan><tspan x="688" y="457" dy="4.8em">PM_MANAGER</tspan><tspan x="688" y="457" dy="6em">PM_MANAGER</tspan><tspan x="688" y="457" dy="7.199999999999999em">PM_MANAGER</tspan><tspan x="688" y="457" dy="8.4em">PM_SUPERADMIN</tspan><tspan x="688" y="457" dy="9.6em">PM_SUPERADMIN</tspan><tspan x="688" y="457" dy="10.799999999999999em">PM_SUPERADMIN</tspan></text></g><g data-render="0" data-label="true" class="link" data-obj="BPMStateTransition" data-id="134" data-from="BPMState" data-fromid="76" data-to="BPMState" data-toid="81" data-tpl="Transition" data-keys="{&quot;stm_name&quot;:&quot;PM_TSK_STATUT-DRAFT-CANCEL&quot;}"><path d="M 129 405 L 788 69" class="road curved bridge" marker-end="url(#end_1)" style="stroke: rgb(0, 0, 0); stroke-width: 1.2px;"></path><text class="link-label" transform="rotate(-27 459,237)"><tspan x="459" y="237" dy="1.2em">PM_MANAGER</tspan><tspan x="459" y="237" dy="2.4em">PM_MANAGER</tspan><tspan x="459" y="237" dy="3.5999999999999996em">PM_MANAGER</tspan><tspan x="459" y="237" dy="4.8em">PM_SUPERADMIN</tspan><tspan x="459" y="237" dy="6em">PM_SUPERADMIN</tspan><tspan x="459" y="237" dy="7.199999999999999em">PM_SUPERADMIN</tspan></text></g><g data-render="0" data-label="true" class="link" data-obj="BPMStateTransition" data-id="151" data-from="BPMState" data-fromid="81" data-to="BPMState" data-toid="76" data-tpl="Transition" data-keys="{&quot;stm_name&quot;:&quot;PM_TSK_STATUT-CANCEL-DRAFT&quot;}"><path d="M 788 69 L 621.9714917521495 153.65186459981453 A 4 4 0 0 0 614.8444141989854 157.28570080294526 L 564.5956474382249 182.90570934864405 A 4 4 0 0 0 557.4685698850608 186.53954555177478 L 494.57176981125997 218.60832373811328 A 4 4 0 0 0 487.44469225809576 222.242159941244 L 350.9491058992724 291.8362677053786 A 4 4 0 0 0 343.8220283461082 295.4701039085093 L 129 405" class="road curved bridge" marker-end="url(#end_1)" style="stroke: rgb(0, 0, 0); stroke-width: 1.2px;"></path><text class="link-label" transform="rotate(-27 459,237)"><tspan x="459" y="237" dy="1.2em">ADMIN</tspan><tspan x="459" y="237" dy="2.4em">ADMIN</tspan><tspan x="459" y="237" dy="3.5999999999999996em">ADMIN</tspan><tspan x="459" y="237" dy="4.8em">PM_MANAGER</tspan><tspan x="459" y="237" dy="6em">PM_MANAGER</tspan><tspan x="459" y="237" dy="7.199999999999999em">PM_MANAGER</tspan><tspan x="459" y="237" dy="8.4em">PM_SUPERADMIN</tspan><tspan x="459" y="237" dy="9.6em">PM_SUPERADMIN</tspan><tspan x="459" y="237" dy="10.799999999999999em">PM_SUPERADMIN</tspan></text></g><g data-render="0" data-label="true" class="link" data-obj="BPMStateTransition" data-id="158" data-from="BPMState" data-fromid="82" data-to="BPMState" data-toid="81" data-tpl="Transition" data-keys="{&quot;stm_name&quot;:&quot;PM_TSK_STATUT-REJECTED-CANCEL&quot;}"><path d="M 507 43 L 765 45" class="road curved bridge" marker-end="url(#end_1)" style="stroke: rgb(0, 0, 0); stroke-width: 1.2px;"></path><text class="link-label"><tspan x="636" y="44" dy="1.2em">PM_MANAGER</tspan><tspan x="636" y="44" dy="2.4em">PM_MANAGER</tspan><tspan x="636" y="44" dy="3.5999999999999996em">PM_MANAGER</tspan><tspan x="636" y="44" dy="4.8em">PM_SUPERADMIN</tspan><tspan x="636" y="44" dy="6em">PM_SUPERADMIN</tspan><tspan x="636" y="44" dy="7.199999999999999em">PM_SUPERADMIN</tspan></text></g><g data-render="0" data-label="true" class="link" data-obj="BPMStateTransition" data-id="157" data-from="BPMState" data-fromid="82" data-to="BPMState" data-toid="76" data-tpl="Transition" data-keys="{&quot;stm_name&quot;:&quot;PM_TSK_STATUT-REJECTED-DRAFT&quot;}"><path d="M 414 64 L 106 405" class="road curved bridge" marker-end="url(#end_1)" style="stroke: rgb(0, 0, 0); stroke-width: 1.2px;"></path><text class="link-label" transform="rotate(-48 260,235)"><tspan x="260" y="235" dy="1.2em">PM_MANAGER</tspan><tspan x="260" y="235" dy="2.4em">PM_MANAGER</tspan><tspan x="260" y="235" dy="3.5999999999999996em">PM_MANAGER</tspan><tspan x="260" y="235" dy="4.8em">PM_SUPERADMIN</tspan><tspan x="260" y="235" dy="6em">PM_SUPERADMIN</tspan><tspan x="260" y="235" dy="7.199999999999999em">PM_SUPERADMIN</tspan></text></g><g data-render="0" data-label="true" class="link" data-obj="BPMStateTransition" data-id="156" data-from="BPMState" data-fromid="81" data-to="BPMState" data-toid="82" data-tpl="Transition" data-keys="{&quot;stm_name&quot;:&quot;PM_TSK_STATUT-CANCEL-REJECTED&quot;}"><path d="M 765 45 L 507 43" class="road curved bridge" marker-end="url(#end_1)" style="stroke: rgb(0, 0, 0); stroke-width: 1.2px;"></path><text class="link-label"><tspan x="636" y="44" dy="1.2em">ADMIN</tspan><tspan x="636" y="44" dy="2.4em">ADMIN</tspan><tspan x="636" y="44" dy="3.5999999999999996em">ADMIN</tspan><tspan x="636" y="44" dy="4.8em">PM_MANAGER</tspan><tspan x="636" y="44" dy="6em">PM_MANAGER</tspan><tspan x="636" y="44" dy="7.199999999999999em">PM_MANAGER</tspan><tspan x="636" y="44" dy="8.4em">PM_SUPERADMIN</tspan><tspan x="636" y="44" dy="9.6em">PM_SUPERADMIN</tspan><tspan x="636" y="44" dy="10.799999999999999em">PM_SUPERADMIN</tspan></text></g><g data-render="0" data-label="true" class="link" data-obj="BPMStateTransition" data-id="150" data-from="BPMState" data-fromid="80" data-to="BPMState" data-toid="82" data-tpl="Transition" data-keys="{&quot;stm_name&quot;:&quot;PM_TSK_STATUT-CLOSED-REJECTED&quot;}"><path d="M 1026 405 L 820.6228669922166 279.26642305986695 A 4 4 0 0 0 813.7999452374852 275.08937401433116 L 725.2610298367613 220.88511880491137 A 4 4 0 0 0 718.4381080820299 216.70806975937558 L 660.8044526155936 181.42426991367586 A 4 4 0 0 0 653.9815308608622 177.24722086814006 L 621.8194138529332 157.55730722414768 A 4 4 0 0 0 614.9964920982018 153.38025817861188 L 469 64" class="road curved bridge" marker-end="url(#end_1)" style="stroke: rgb(0, 0, 0); stroke-width: 1.2px;"></path><text class="link-label" transform="rotate(31 748,235)"><tspan x="748" y="235" dy="1.2em">ADMIN</tspan><tspan x="748" y="235" dy="2.4em">ADMIN</tspan><tspan x="748" y="235" dy="3.5999999999999996em">ADMIN</tspan><tspan x="748" y="235" dy="4.8em">PM_MANAGER</tspan><tspan x="748" y="235" dy="6em">PM_MANAGER</tspan><tspan x="748" y="235" dy="7.199999999999999em">PM_MANAGER</tspan><tspan x="748" y="235" dy="8.4em">PM_SUPERADMIN</tspan><tspan x="748" y="235" dy="9.6em">PM_SUPERADMIN</tspan><tspan x="748" y="235" dy="10.799999999999999em">PM_SUPERADMIN</tspan></text></g><g data-render="0" data-label="true" class="link" data-obj="BPMStateTransition" data-id="143" data-from="BPMState" data-fromid="78" data-to="BPMState" data-toid="82" data-tpl="Transition" data-keys="{&quot;stm_name&quot;:&quot;PM_TSK_STATUT-DOING-REJECTED&quot;}"><path d="M 560 432 L 514.4714596188993 292.3791428312911 A 4 4 0 0 0 511.99129482025194 284.77330411543926 L 492.24831343400155 224.22816119760452 A 4 4 0 0 0 489.7681486353542 216.62232248175272 L 440 64" class="road curved bridge" marker-end="url(#end_1)" style="stroke: rgb(0, 0, 0); stroke-width: 1.2px;"></path><text class="link-label" transform="rotate(72 500,248)"><tspan x="500" y="248" dy="1.2em">ADMIN</tspan><tspan x="500" y="248" dy="2.4em">ADMIN</tspan><tspan x="500" y="248" dy="3.5999999999999996em">ADMIN</tspan><tspan x="500" y="248" dy="4.8em">PM_MANAGER</tspan><tspan x="500" y="248" dy="6em">PM_MANAGER</tspan><tspan x="500" y="248" dy="7.199999999999999em">PM_MANAGER</tspan><tspan x="500" y="248" dy="8.4em">PM_SUPERADMIN</tspan><tspan x="500" y="248" dy="9.6em">PM_SUPERADMIN</tspan><tspan x="500" y="248" dy="10.799999999999999em">PM_SUPERADMIN</tspan></text></g><g data-render="0" data-label="true" class="link" data-obj="BPMStateTransition" data-id="147" data-from="BPMState" data-fromid="79" data-to="BPMState" data-toid="82" data-tpl="Transition" data-keys="{&quot;stm_name&quot;:&quot;PM_TSK_STATUT-DONE-REJECTED&quot;}"><path d="M 785 435 L 670.0824433444478 306.583091809609 A 4 4 0 0 0 664.7476147830074 300.62158157980656 L 599.7653840517582 228.00589603374198 A 4 4 0 0 0 594.4305554903178 222.04438580393952 L 563.699522942363 187.70338256511064 A 4 4 0 0 0 558.3646943809226 181.7418723353082 L 453 64" class="road curved bridge" marker-end="url(#end_1)" style="stroke: rgb(0, 0, 0); stroke-width: 1.2px;"></path><text class="link-label" transform="rotate(48 619,250)"><tspan x="619" y="250" dy="1.2em">PM_MANAGER</tspan><tspan x="619" y="250" dy="2.4em">PM_MANAGER</tspan><tspan x="619" y="250" dy="3.5999999999999996em">PM_MANAGER</tspan><tspan x="619" y="250" dy="4.8em">PM_SUPERADMIN</tspan><tspan x="619" y="250" dy="6em">PM_SUPERADMIN</tspan><tspan x="619" y="250" dy="7.199999999999999em">PM_SUPERADMIN</tspan></text></g><g data-render="0" data-label="true" class="link" data-obj="BPMStateTransition" data-id="135" data-from="BPMState" data-fromid="76" data-to="BPMState" data-toid="82" data-tpl="Transition" data-keys="{&quot;stm_name&quot;:&quot;PM_TSK_STATUT-DRAFT-REJECTED&quot;}"><path d="M 106 405 L 414 64" class="road curved bridge" marker-end="url(#end_1)" style="stroke: rgb(0, 0, 0); stroke-width: 1.2px;"></path><text class="link-label" transform="rotate(-48 260,235)"><tspan x="260" y="235" dy="1.2em">PM_MANAGER</tspan><tspan x="260" y="235" dy="2.4em">PM_MANAGER</tspan><tspan x="260" y="235" dy="3.5999999999999996em">PM_MANAGER</tspan><tspan x="260" y="235" dy="4.8em">PM_SUPERADMIN</tspan><tspan x="260" y="235" dy="6em">PM_SUPERADMIN</tspan><tspan x="260" y="235" dy="7.199999999999999em">PM_SUPERADMIN</tspan></text></g><g data-render="0" data-label="true" class="link" data-obj="BPMStateTransition" data-id="138" data-from="BPMState" data-fromid="77" data-to="BPMState" data-toid="81" data-tpl="Transition" data-keys="{&quot;stm_name&quot;:&quot;PM_TSK_STATUT-TODO-CANCEL&quot;}"><path d="M 320 435 L 803 69" class="road curved bridge" marker-end="url(#end_1)" style="stroke: rgb(0, 0, 0); stroke-width: 1.2px;"></path><text class="link-label" transform="rotate(-37 562,252)"><tspan x="562" y="252" dy="1.2em">PM_MANAGER</tspan><tspan x="562" y="252" dy="2.4em">PM_MANAGER</tspan><tspan x="562" y="252" dy="3.5999999999999996em">PM_MANAGER</tspan><tspan x="562" y="252" dy="4.8em">PM_SUPERADMIN</tspan><tspan x="562" y="252" dy="6em">PM_SUPERADMIN</tspan><tspan x="562" y="252" dy="7.199999999999999em">PM_SUPERADMIN</tspan></text></g><g data-render="0" data-label="true" class="link" data-obj="BPMStateTransition" data-id="137" data-from="BPMState" data-fromid="77" data-to="BPMState" data-toid="78" data-tpl="Transition" data-keys="{&quot;stm_name&quot;:&quot;PM_TSK_STATUT-TODO-DOING&quot;}"><path d="M 347 457 L 503 457" class="road curved bridge" marker-end="url(#end_1)" style="stroke: rgb(0, 0, 0); stroke-width: 1.2px;"></path><text class="link-label"><tspan x="425" y="457" dy="1.2em">PM_MANAGER</tspan><tspan x="425" y="457" dy="2.4em">PM_MANAGER</tspan><tspan x="425" y="457" dy="3.5999999999999996em">PM_MANAGER</tspan><tspan x="425" y="457" dy="4.8em">PM_SUPERADMIN</tspan><tspan x="425" y="457" dy="6em">PM_SUPERADMIN</tspan><tspan x="425" y="457" dy="7.199999999999999em">PM_SUPERADMIN</tspan></text></g><g data-render="0" data-label="true" class="link" data-obj="BPMStateTransition" data-id="136" data-from="BPMState" data-fromid="77" data-to="BPMState" data-toid="76" data-tpl="Transition" data-keys="{&quot;stm_name&quot;:&quot;PM_TSK_STATUT-TODO-DRAFT&quot;}"><path d="M 235 449 L 153 437" class="road curved bridge" marker-end="url(#end_1)" style="stroke: rgb(0, 0, 0); stroke-width: 1.2px;"></path><text class="link-label" transform="rotate(8 194,443)"><tspan x="194" y="443" dy="1.2em">PM_MANAGER</tspan><tspan x="194" y="443" dy="2.4em">PM_MANAGER</tspan><tspan x="194" y="443" dy="3.5999999999999996em">PM_MANAGER</tspan><tspan x="194" y="443" dy="4.8em">PM_SUPERADMIN</tspan><tspan x="194" y="443" dy="6em">PM_SUPERADMIN</tspan><tspan x="194" y="443" dy="7.199999999999999em">PM_SUPERADMIN</tspan></text></g><g data-render="0" data-label="true" class="link" data-obj="BPMStateTransition" data-id="139" data-from="BPMState" data-fromid="77" data-to="BPMState" data-toid="82" data-tpl="Transition" data-keys="{&quot;stm_name&quot;:&quot;PM_TSK_STATUT-TODO-REJECTED&quot;}"><path d="M 299 435 L 346.09009549732275 297.43759504325385 A 4 4 0 0 1 348.68103874805786 289.86877657063405 L 426 64" class="road curved bridge" marker-end="url(#end_1)" style="stroke: rgb(0, 0, 0); stroke-width: 1.2px;"></path><text class="link-label" transform="rotate(-71 363,250)"><tspan x="363" y="250" dy="1.2em">PM_MANAGER</tspan><tspan x="363" y="250" dy="2.4em">PM_MANAGER</tspan><tspan x="363" y="250" dy="3.5999999999999996em">PM_MANAGER</tspan><tspan x="363" y="250" dy="4.8em">PM_SUPERADMIN</tspan><tspan x="363" y="250" dy="6em">PM_SUPERADMIN</tspan><tspan x="363" y="250" dy="7.199999999999999em">PM_SUPERADMIN</tspan></text></g><g data-render="0" data-label="true" class="link" data-obj="BPMStateTransition" data-id="152" data-from="BPMState" data-fromid="81" data-to="BPMState" data-toid="77" data-tpl="Transition" data-keys="{&quot;stm_name&quot;:&quot;PM_TSK_STATUT-CANCEL-TODO&quot;}"><path d="M 803 69 L 660.5810714845737 176.91993340920502 A 4 4 0 0 0 654.2049119918821 181.75155737261102 L 600.2860495173838 222.60932893713775 A 4 4 0 0 0 593.9098900246922 227.44095290054375 L 516.4194569659214 286.16041149166205 A 4 4 0 0 0 510.0432974732298 290.9920354550681 L 320 435" class="road curved bridge" marker-end="url(#end_1)" style="stroke: rgb(0, 0, 0); stroke-width: 1.2px;"></path><text class="link-label" transform="rotate(-37 562,252)"><tspan x="562" y="252" dy="1.2em">ADMIN</tspan><tspan x="562" y="252" dy="2.4em">ADMIN</tspan><tspan x="562" y="252" dy="3.5999999999999996em">ADMIN</tspan><tspan x="562" y="252" dy="4.8em">PM_MANAGER</tspan><tspan x="562" y="252" dy="6em">PM_MANAGER</tspan><tspan x="562" y="252" dy="7.199999999999999em">PM_MANAGER</tspan><tspan x="562" y="252" dy="8.4em">PM_SUPERADMIN</tspan><tspan x="562" y="252" dy="9.6em">PM_SUPERADMIN</tspan><tspan x="562" y="252" dy="10.799999999999999em">PM_SUPERADMIN</tspan></text></g><g data-render="0" data-label="true" class="link" data-obj="BPMStateTransition" data-id="140" data-from="BPMState" data-fromid="78" data-to="BPMState" data-toid="77" data-tpl="Transition" data-keys="{&quot;stm_name&quot;:&quot;PM_TSK_STATUT-DOING-TODO&quot;}"><path d="M 503 457 L 347 457" class="road curved bridge" marker-end="url(#end_1)" style="stroke: rgb(0, 0, 0); stroke-width: 1.2px;"></path><text class="link-label"><tspan x="425" y="457" dy="1.2em">ADMIN</tspan><tspan x="425" y="457" dy="2.4em">ADMIN</tspan><tspan x="425" y="457" dy="3.5999999999999996em">ADMIN</tspan><tspan x="425" y="457" dy="4.8em">PM_MANAGER</tspan><tspan x="425" y="457" dy="6em">PM_MANAGER</tspan><tspan x="425" y="457" dy="7.199999999999999em">PM_MANAGER</tspan><tspan x="425" y="457" dy="8.4em">PM_SUPERADMIN</tspan><tspan x="425" y="457" dy="9.6em">PM_SUPERADMIN</tspan><tspan x="425" y="457" dy="10.799999999999999em">PM_SUPERADMIN</tspan></text></g><g data-render="0" data-label="true" class="link" data-obj="BPMStateTransition" data-id="133" data-from="BPMState" data-fromid="76" data-to="BPMState" data-toid="77" data-tpl="Transition" data-keys="{&quot;stm_name&quot;:&quot;PM_TSK_STATUT-DRAFT-TODO&quot;}"><path d="M 153 437 L 235 449" class="road curved bridge" marker-end="url(#end_1)" style="stroke: rgb(0, 0, 0); stroke-width: 1.2px;"></path><text class="link-label" transform="rotate(8 194,443)"><tspan x="194" y="443" dy="1.2em">PM_MANAGER</tspan><tspan x="194" y="443" dy="2.4em">PM_MANAGER</tspan><tspan x="194" y="443" dy="3.5999999999999996em">PM_MANAGER</tspan><tspan x="194" y="443" dy="4.8em">PM_SUPERADMIN</tspan><tspan x="194" y="443" dy="6em">PM_SUPERADMIN</tspan><tspan x="194" y="443" dy="7.199999999999999em">PM_SUPERADMIN</tspan></text></g></g><g class="nodes"><g data-x="764.951171875" data-y="23" transform="translate(764.951171875 23)" data-color="#CCCCEE" class="node" data-obj="BPMState" data-id="81" data-tpl="State" data-keys="{&quot;sta_state_id__lov_list_id__lov_name&quot;:&quot;PM_TSK_STATUT&quot;,&quot;sta_state_id__lov_code&quot;:&quot;CANCEL&quot;}" data-w="136.6796875" data-h="46"><rect x="0" y="0" width="136.6796875" height="46" rx="7" ry="7" class="border" filter="url(#shadow)"></rect><g class="content" data-obj="BPMState"><g class="item title empty" data-id="81"><rect x="1" y="0" width="134.6796875" height="46" class="border-item" rx="7" ry="7" style="fill: rgb(204, 204, 238);"></rect><text x="68.33984375" y="23" dy="0.5em">CANCEL / Annulée</text></g></g><rect x="0" y="0" width="136.6796875" height="46" class="resize"></rect></g><g data-x="995.47265625" data-y="405.25" transform="translate(995.47265625 405.25)" data-color="#CCCCEE" class="node" data-obj="BPMState" data-id="80" data-tpl="State" data-keys="{&quot;sta_state_id__lov_list_id__lov_name&quot;:&quot;PM_TSK_STATUT&quot;,&quot;sta_state_id__lov_code&quot;:&quot;CLOSED&quot;}" data-w="132.703125" data-h="43.5"><rect x="0" y="0" width="132.703125" height="43.5" rx="7" ry="7" class="border" filter="url(#shadow)"></rect><g class="content" data-obj="BPMState"><g class="item title empty" data-id="80"><rect x="1" y="0" width="130.703125" height="43.5" class="border-item" rx="7" ry="7" style="fill: rgb(204, 204, 238);"></rect><text x="66.3515625" y="21.75" dy="0.5em">CLOSED / Fermée</text></g></g><rect x="0" y="0" width="132.703125" height="43.5" class="resize"></rect></g><g data-x="502.970703125" data-y="431.75" transform="translate(502.970703125 431.75)" data-color="#CCCCEE" class="node" data-obj="BPMState" data-id="78" data-tpl="State" data-keys="{&quot;sta_state_id__lov_list_id__lov_name&quot;:&quot;PM_TSK_STATUT&quot;,&quot;sta_state_id__lov_code&quot;:&quot;DOING&quot;}" data-w="130.6875" data-h="50.5"><rect x="0" y="0" width="130.6875" height="50.5" rx="7" ry="7" class="border" filter="url(#shadow)"></rect><g class="content" data-obj="BPMState"><g class="item title empty" data-id="78"><rect x="1" y="0" width="128.6875" height="50.5" class="border-item" rx="7" ry="7" style="fill: rgb(204, 204, 238);"></rect><text x="65.34375" y="25.25" dy="0.5em">DOING / En cours</text></g></g><rect x="0" y="0" width="130.6875" height="50.5" class="resize"></rect></g><g data-x="740.951171875" data-y="435.25" transform="translate(740.951171875 435.25)" data-color="#CCCCEE" class="node" data-obj="BPMState" data-id="79" data-tpl="State" data-keys="{&quot;sta_state_id__lov_list_id__lov_name&quot;:&quot;PM_TSK_STATUT&quot;,&quot;sta_state_id__lov_code&quot;:&quot;DONE&quot;}" data-w="127.140625" data-h="43.5"><rect x="0" y="0" width="127.140625" height="43.5" rx="7" ry="7" class="border" filter="url(#shadow)"></rect><g class="content" data-obj="BPMState"><g class="item title empty" data-id="79"><rect x="1" y="0" width="125.140625" height="43.5" class="border-item" rx="7" ry="7" style="fill: rgb(204, 204, 238);"></rect><text x="63.5703125" y="21.75" dy="0.5em">DONE / Terminée</text></g></g><rect x="0" y="0" width="127.140625" height="43.5" class="resize"></rect></g><g data-x="20" data-y="405.25" transform="translate(20 405.25)" data-color="#CCCCEE" class="node" data-obj="BPMState" data-id="76" data-tpl="State" data-keys="{&quot;sta_state_id__lov_list_id__lov_name&quot;:&quot;PM_TSK_STATUT&quot;,&quot;sta_state_id__lov_code&quot;:&quot;DRAFT&quot;}" data-w="133.3203125" data-h="43.5"><rect x="0" y="0" width="133.3203125" height="43.5" rx="7" ry="7" class="border" filter="url(#shadow)"></rect><g class="content" data-obj="BPMState"><g class="item title empty" data-id="76"><rect x="1" y="0" width="131.3203125" height="43.5" class="border-item" rx="7" ry="7" style="fill: rgb(204, 204, 238);"></rect><text x="66.66015625" y="21.75" dy="0.5em">DRAFT / Brouillon</text></g></g><rect x="0" y="0" width="133.3203125" height="43.5" class="resize"></rect></g><g data-x="359.947265625" data-y="20" transform="translate(359.947265625 20)" data-color="#CCCCEE" class="node" data-obj="BPMState" data-id="82" data-tpl="State" data-keys="{&quot;sta_state_id__lov_list_id__lov_name&quot;:&quot;PM_TSK_STATUT&quot;,&quot;sta_state_id__lov_code&quot;:&quot;REJECTED&quot;}" data-w="146.7109375" data-h="43.5"><rect x="0" y="0" width="146.7109375" height="43.5" rx="7" ry="7" class="border" filter="url(#shadow)"></rect><g class="content" data-obj="BPMState"><g class="item title empty" data-id="82"><rect x="1" y="0" width="144.7109375" height="43.5" class="border-item" rx="7" ry="7" style="fill: rgb(204, 204, 238);"></rect><text x="73.35546875" y="21.75" dy="0.5em">REJECTED / Rejetée</text></g></g><rect x="0" y="0" width="146.7109375" height="43.5" class="resize"></rect></g><g data-x="235.46484375" data-y="435" transform="translate(235.46484375 435)" data-color="#CCCCEE" class="node" data-obj="BPMState" data-id="77" data-tpl="State" data-keys="{&quot;sta_state_id__lov_list_id__lov_name&quot;:&quot;PM_TSK_STATUT&quot;,&quot;sta_state_id__lov_code&quot;:&quot;TODO&quot;}" data-w="111.796875" data-h="44"><rect x="0" y="0" width="111.796875" height="44" rx="7" ry="7" class="border" filter="url(#shadow)"></rect><g class="content" data-obj="BPMState"><g class="item title empty" data-id="77"><rect x="1" y="0" width="109.796875" height="44" class="border-item" rx="7" ry="7" style="fill: rgb(204, 204, 238);"></rect><text x="55.8984375" y="22" dy="0.5em">TODO / À faire</text></g></g><rect x="0" y="0" width="111.796875" height="44" class="resize"></rect></g></g></g><g class="foreground"></g></g></svg>