<svg height="166" viewBox="0 0 250 166" width="250" xmlns="http://www.w3.org/2000/svg"><g fill="none" fill-rule="nonzero"><g transform="translate(9 49)"><path d="m61.0682833 44.0073589 31.0780044-26.5824119.1440956.3901957-30.968416 26.4887497z" fill="#2f2e41"/><circle cx="94.789594" cy="18.886471" fill="#387ed1" r="4.554605"/><path d="m133.1777 28.971947h-41.5863756c-.48493.0005724-.9332693-.2578054-1.1758999-.6776718-.2426307-.4198664-.2426307-.9373287 0-1.3571951.2426306-.4198663.6909699-.6782442 1.1758999-.6776718h41.5863756c.48493-.0005724.933269.2578055 1.1759.6776718.242631.4198664.242631.9373287 0 1.3571951s-.69097.6782442-1.1759.6776718z" fill="#387ed1"/><path d="m133.1777 34.3312419h-41.5863756c-.7490835 0-1.3563357-.6072522-1.3563357-1.3563357s.6072522-1.3563357 1.3563357-1.3563357h41.5863756c.749084 0 1.356336.6072522 1.356336 1.3563357s-.607252 1.3563357-1.356336 1.3563357z" fill="#387ed1"/><path d="m109.618017 39.6905377h-18.0266926c-.7490835 0-1.3563357-.6072522-1.3563357-1.3563357s.6072522-1.3563357 1.3563357-1.3563357h18.0266926c.749084 0 1.356336.6072522 1.356336 1.3563357s-.607252 1.3563357-1.356336 1.3563357z" fill="#387ed1"/><g fill="#e6e7e8"><circle cx="102.466038" cy="53.429159" r="3.12184"/><path d="m128.778216 60.341999h-28.504352c-.3324372.0004739-.6398255-.1766069-.8061815-.4644274s-.166356-.6425671 0-.9303877c.166356-.2878205.4737443-.4649012.8061815-.4644274h28.504352c.332437-.0004738.639825.1766069.806181.4644274.166356.2878206.166356.6425672 0 .9303877s-.473744.4649013-.806181.4644274z"/><path d="m107.353478 64.0153965h-7.079614c-.5129225-.0007325-.9283406-.4167443-.9283406-.9296678 0-.5129234.4154181-.9289352.9283406-.9296677h7.079614c.512922.0007325.928341.4167443.928341.9296677 0 .5129235-.415419.9289353-.928341.9296678z"/><circle cx="92.502384" cy="84.64832" r="3.12184"/><path d="m118.814562 91.5611603h-28.5043516c-.3324376.0004738-.6398259-.176607-.8061819-.4644275s-.166356-.6425671 0-.9303877c.166356-.2878205.4737443-.4649012.8061819-.4644274h28.5043516c.332437-.0004738.639825.1766069.806181.4644274.166356.2878206.166356.6425672 0 .9303877s-.473744.4649013-.806181.4644275z"/><path d="m107.438594 95.2345558h-17.1283836c-.5134408 0-.9296668-.416226-.9296668-.9296668s.416226-.9296668.9296668-.9296668h17.1283836c.513441 0 .929667.416226.929667.9296668s-.416226.9296668-.929667.9296668z"/><path d="m102.66616 98.9079522h-12.3559496c-.5134408 0-.9296668-.416226-.9296668-.9296668 0-.5134407.416226-.9296667.9296668-.9296667h12.3559496c.513441 0 .929667.416226.929667.9296667 0 .5134408-.416226.9296668-.929667.9296668z"/></g><path d="m8.07279086 109.303901c-4.87541337-2.31027-8.50685148-6.958384-7.94036624-12.0665285 4.3738906 3.5417515 10.32879598 5.5195375 16.47626058 5.4722075 2.3943623-.018423 5.0759148-.262007 6.8158576 1.081531 1.0826507.835965 1.571021 2.163405 1.6327261 3.486377.0616862 1.323042-.2590497 2.662041-.5779635 3.983566l.0969801.313146c-5.7243506.36442-11.6280813.03997-16.50349464-2.270299z" fill="#f2f2f2"/><path d="m.25246952 97.2247016c1.88562342 3.6793324 5.15484314 6.7459164 9.21775651 8.5408974.89021777.41536 1.83807717.693849 2.81149257.826038.9913091.103629 1.9930955-.027322 2.9244596-.382278.8830026-.316847 1.7534157-.72949 2.6898967-.85498.926418-.12933 1.8655796.123881 2.6014258.701382.8653319.672937 1.381488 1.604144 1.8492204 2.533103.5193261 1.031434 1.0396894 2.111493 2.0565985 2.814414.123215.085172-.0483782.262307-.1713979.177276-1.7692492-1.222964-2.0245619-3.434418-3.4304229-4.915629-.6560141-.691162-1.5665086-1.192276-2.6594205-1.111686-.9556969.070462-1.8536171.495326-2.7451934.822831-.9065198.358024-1.8792383.517625-2.8526356.468051-.981353-.086433-1.9423096-.33077-2.8457626-.723576-1.96443015-.817686-3.78291641-1.94919-5.38434759-3.350266-1.76925273-1.530116-3.22981551-3.3842272-4.30310933-5.4625803-.06513499-.127098.17674272-.2092609.24145111-.0829952z" fill="#fff"/><path d="m8.10922998 105.247081c-1.05204234 1.241149-2.77510913 1.679136-4.29213342 1.09102-.14189812-.059701-.02602252-.267631.11606141-.207849 1.41184401.550041 3.01722109.138933 3.99091487-1.022001.09971414-.121278.28429869.018248.18514955.138843z" fill="#fff"/><path d="m14.7773801 106.421062c-.1910291-1.453651-.9944959-2.756255-2.2078003-3.57935-.122832-.085577.0487176-.262747.1713979-.177275 1.2607443.858984 2.0936876 2.216375 2.2885185 3.729442.0174431.142558-.2347734.168965-.2521218.027171z" fill="#fff"/><path d="m2.83434383 101.08389c.47668386-.366323.72985496-.953236.66919127-1.5513498-.01948135-.1421427.23276745-.1683984.25212176-.0271715.06400424.6606103-.21358843 1.3081963-.73616158 1.7173653-.0477409.047052-.12160335.055015-.17827657.019222-.02416724-.018615-.03888198-.046951-.04020762-.077428-.00132563-.030476.01087312-.059983.03333274-.080626z" fill="#fff"/><path d="m16.2179207 86.4370787c.0150315.0882377.0300667.1764753.0469941.2654544.2086117 1.1830796.5273444 2.3440717.9520395 3.4678289.0312271.0874167.0643956.17548.098459.261706 1.0739969 2.7208537 2.7071688 5.1859662 4.7938762 7.2358849.8500786.8375439 1.7669908 1.604427 2.7416346 2.2930366 1.3585692.9613755 2.926549 1.9006245 3.786301 3.1958575.0911659.133555.1728025.27337.2443027.418407l-3.873458 7.837142c-.0184879.014599-.035093.029915-.0536206.0446l-.1391509.318062c-.0538462-.032529-.1088073-.067349-.1626535-.099879-.0313314-.018747-.0618095-.03923-.0931389-.057977-.0206151-.013052-.0411961-.026188-.060742-.036845-.0068805-.004317-.0137194-.008722-.0186774-.012406-.0195287-.010659-.0362438-.022509-.0538462-.032529-.3079095-.19387-.6146448-.390127-.9202058-.588773-.0019377-.000648-.0019377-.000648-.0030146-.003034-2.3233802-1.519226-4.5085423-3.235954-6.3038576-5.216658-.0539903-.059608-.1099677-.119772-.1621852-.182963-.7980085-.890113-1.5127082-1.851531-2.1351212-2.872178-.3353575-.555043-.6383277-1.12902-.9073926-1.719055-.6904884-1.5243267-1.0996137-3.1609625-1.2076253-4.8308969-.2187769-3.3451031.7735165-6.8039981 3.2404917-9.4817092.0631631-.0684454.1254939-.1352527.190591-.2030762z" fill="#f2f2f2"/><path d="m16.3169902 86.4905078c-1.0789251 4.1373956-.7071756 8.5010308 1.1196056 12.2139966.3799359.824515.9033227 1.5749796 1.5457664 2.2164176.6881729.630698 1.5341583 1.063466 2.4482977 1.252439.8755836.207306 1.8065813.326581 2.592672.725028.7823653.391685 1.3299248 1.134252 1.4728787 1.997431.1923316 1.037298-.0515938 2.105429-.3302595 3.145553-.3094016 1.15485-.6509442 2.3515-.3654282 3.495971.0345962.138669-.2137848.196416-.2483279.057953-.4967506-1.991187.8091137-4.00457.7592415-6.018891-.0232714-.939921-.3657374-1.855851-1.2385414-2.376717-.7632231-.455482-1.723093-.579226-2.6123012-.782109-.8983954-.17446-1.740428-.566185-2.4525846-1.140975-.6784082-.605272-1.2352701-1.3342696-1.6407936-2.1479912-.9295103-1.792806-1.5269035-3.7390278-1.7633014-5.7445847-.2836816-2.3269884-.1221027-4.6867011.4761202-6.953302.0372677-.1429182.2739712-.0822103.2369519.0597826z" fill="#fff"/><path d="m16.7686313 97.5309255c-1.5934583.4991794-3.2838948-.0980229-3.9520262-1.3886567-.0658213-.1271435.1616829-.2410378.2275933-.1137198.6259209 1.2090757 2.1902624 1.751423 3.6798012 1.2847846.1567551-.0491062.2004957.1687568.0446355.2175806z" fill="#fff"/><path d="m20.9663119 102.121746c.8244338-1.243941 1.1027572-2.7715186.7700279-4.2262947-.034035-.1388095.2143402-.1966013.2483278-.0579548.3429606 1.5149547.0497559 3.1042735-.8112012 4.3971245-.0834484.130326-.2901516.016745-.2071545-.112875z" fill="#fff"/><path d="m15.6375909 91.1558412c.6334433-.0716038 1.2020535-.4216977 1.5511871-.9550674.0816377-.1310796.2882651-.0173351.2071582.1128742-.388065.5875983-1.0146457.975081-1.7137117 1.0597737-.06858.00824-.1325736-.0159112-.1464807-.0798213-.0079264-.0656566.0367524-.1260928.1018471-.1377668z" fill="#fff"/><path d="m27.8349919 33.9759894 6.5926308 7.0003208 15.3446002 5.6247066 1.843921-3.4254933-11.8082424-6.2789802s-5.3236777-5.5620724-8.4820007-6.7077859z" fill="#a0616a"/><circle cx="51.36482" cy="45.202044" fill="#a0616a" r="2.275193"/><path d="m32.9507112 30.5778326-4.7120905 4.1605703-.0221831.005688c-2.1907914.5592805-5.3549578-2.0247193-7.623502-4.2909314-1.550851-1.5518153-1.6348208-4.0396498-.1921344-5.6925035 1.0543552-1.1916298 2.6936724-1.6815544 4.2289854-1.26387l3.8300038 1.0565847z" fill="#3f3d56"/><path d="m38.2206014 113.217415 3.2474594-.000189 1.5448563-12.525888-4.7928845.00019z" fill="#a0616a"/><path d="m37.3921276 112.157139.914059-.000034 3.5686617-1.451285 1.9126926 1.451065h.0002616c2.2508535.000116 4.0755106 1.824748 4.0756582 4.075601v.132445l-10.4711397.000393z" fill="#2f2e41"/><path d="m23.8110431 113.217415 3.2474594-.000189 1.5448564-12.525888-4.7928846.00019z" fill="#a0616a"/><path d="m22.9825694 112.157139.9140589-.000034 3.5686617-1.451285 1.9126926 1.451065h.0002616c2.2508536.000116 4.0755106 1.824748 4.0756583 4.075601v.132445l-10.4711397.000393z" fill="#2f2e41"/><path d="m18.8592269 59.2638503s-.3791989 4.5503868.5687983 8.9111742c.9479973 4.3607874.9479973 16.6422075.9479973 16.6422075l2.0855939 23.932083 6.2567819-.568799 1.7063951-40.0054839 6.0671824 13.461561-.5687983 1.8959945.7576526.4739986s-.5680532 3.6971893-.1888543 3.6971893 1.3271962.5687984 1.3271962.5687984l-.7583978 19.5287431 6.4463813-.189599 2.2751934-27.4919205-2.4647928-15.7367544-.1895995-3.0335913-.8531975.0350759-.4344387-1.2674723-.7979578-2.1803937z" fill="#2f2e41"/><path d="m18.5315118 60.2196249-.0337904-.0473998c-1.8047138-2.5266346.9095768-8.5980754 1.3189562-9.4782131l-1.724263-.5595402.3882713-3.3004942.1839532-1.471432-1.3178471-1.3178451-.0037028-.0328652-.7583978-6.6359808-1.1026972-4.4075521c-.8459428-3.3925246.2040271-6.9775415 2.7465073-9.3776741l2.5488537-2.4032281 3.097655-4.5834264h4.9953161l1.7127845 3.2352265c3.426763.7919998 5.7975028 3.9203613 5.6333618 7.4336256l-.3881821 8.4850381 1.5196643 10.564616.0009271 1.9119209 1.7101871 1.9006226-.3734579 1.8672038 1.301551.5577808.5747233 2.681797c.2378336.3138383 1.8076753 2.4070238 1.8076753 2.9792463 0 .0859132-.0634153.1689559-.1995041.2610785-1.0698301.7244215-6.982963 2.201316-9.6000459 1.1540748-2.7877054-1.1146363-13.8692738.5575039-13.9809232.5745394z" fill="#3f3d56"/><path d="m59.4970774 116.296886c0 .059661-.0233522.116949-.0654131.159262-.0420609.042312-.0992078.066183-.1588689.066361h-53.14418575c-.12460834 0-.22562335-.101015-.22562335-.225623 0-.124609.10101501-.225625.22562335-.225625h53.14283015c.1242406-.000372.2256376.100042.2256376.224282z" fill="#ccc"/><circle cx="27.017959" cy="8.508724" fill="#a0616a" r="6.615669"/><path d="m27.6517289 15.2315013c-1.0245594-.0104661-2.0463525-.1084298-3.0542367-.2928231-.9978032-.2298703-3.1993012-1.9321928-3.7993019-2.9378662-.4457635-.7471944-.7133129-1.9029396-.8593083-2.74085917-.3986299-2.24260512.1722987-4.54907103 1.57104-6.34676578.2666238-.3724021.6289418-.66581969 1.0486291-.84921594.0371254-.01342364.0752709-.0251807.1137786-.03508728.6083489-.14338433 1.159958-.46532451 1.5840067-.92448692.0823307-.09296007.1712503-.17986917.2660687-.26005271.4757144-.38088213 1.0348143-.64377661 1.6315924-.76719143.9641132-.23153695 2.3432388.0586033 4.0989771.86310221.882083.40419569 1.861093.29143521 2.615695.14803167.0860842-.01432891.1733073.01809341.229131.08517186.3115261.3079676.7280745.48660681 1.1659247.50001357.2679211.01870019.539729.39734357.8673625.89041401.0743401.11192624.1610856.24255457.2240383.32226408l.0125913-.14969825.1473833.17117607c.4709392.546814.6287786 1.29683312.4181746 1.98707601-.2106041.69024288-.7602639 1.22439275-1.4562506 1.41515911-.2716597.0648206-.5492278.1017349-.8283865.11016866-.1692327.01083182-.3442975.02203525-.5124172.04675522-1.0985221.19555662-2.0135252.95387453-2.4096194 1.99699604-.0931838.24017932-.2926612.42343786-.5398629.4959684-.2472016.07253054-.5140709.02610109-.7222514-.12565603-.3467702-.28470397-.8109278-.38166492-1.2426727-.25959008-.1849749.09669522-.3310815.25404663-.4138216.44567057-.1000465.2132828-.2613557.39193117-.4633527.5131585-.6887787.33290819-.7757101 1.88423931-.5650063 3.18477211.203116 1.2535956.6449889 2.1680811 1.0745511 2.223812.330688.0428627.3679973.0673969.3904933.1266524l.0200975.053048-.0385133.0481393c-.0374895.0429481-.2565299.0617431-.5745337.0617431z" fill="#2f2e41"/><circle cx="60.106068" cy="53.673662" fill="#387ed1" r="11.715183"/><path d="m59.0833059 58.2653003c-.0252982 0-.0509017-.0006069-.0765052-.0018279-.4546803-.0220792-.8770474-.241613-1.1563785-.6010511l-1.8464237-2.3737131c-.5286372-.6809877-.4061893-1.6613964.2737001-2.1914454l.0661417-.0515066c.6811516-.5286088 1.6616145-.4063215 2.1920579.2734024.1676983.215834.4213074.3476492.6943132.3608741.2734346.0159925.5397459-.0908462.7263138-.2913821l3.7489291-3.9574032c.5935948-.625032 1.5810694-.6517545 2.2075993-.0597409l.0609562.057606c.6253976.5935085.6522595 1.5812859.0600423 2.2079065l-5.8175463 6.1406257c-.294616.3114466-.7044837.487827-1.1331999.4876556z" fill="#fff"/><path d="m29.1755188 34.2192493 4.5957618 8.4466707 13.4098459 9.3418588 2.6543923-2.8439917-9.8233562-9.0753503s-3.7342673-6.7330083-6.4974215-8.6442049z" fill="#a0616a"/><circle cx="49.077117" cy="51.059778" fill="#a0616a" r="2.275193"/><path d="m29.5891983 35.3452406-2.8900038-6.9361167 1.0452978-3.8330942c.4242118-1.5335229 1.6819691-2.6934179 3.2447614-2.9922965 2.1576433-.3976103 4.2545551.9439733 4.7978463 3.0696152.7915417 3.1074686 1.399407 7.1471958-.1993202 8.7459231l-.0162012.0162012z" fill="#3f3d56"/><path d="m94.0461841 21.4617469c-.0104071 0-.0209393-.0002484-.0314735-.0007584-.1870536-.0090833-.3608138-.0993986-.4757296-.24727l-.7596113-.9765206c-.2174704-.2801557-.1670964-.6834836.1125993-.9015453l.0272114-.0211897c.2802221-.2174681.6835804-.1671607.9018032.1124742.0689907.0887909.1733236.1430169.2856354.1484564.1124917.0065808.2220535-.0373718.2988087-.1198724l1.542293-1.6280601c.2442034-.257135.6504464-.2681279.9081984-.0245759l.0250764.0236999c.2572865.2441668.2683373.6505347.024701.9083236l-2.3933138 2.5262231c-.1212052.1281282-.2898253.2006891-.4661986.2006152z" fill="#fff"/><path d="m130.247816 92.8300442c1.35549.920109 2.862193 1.9554301 3.299012 3.634811.202918.7248087.101269 1.5010351-.281436 2.1491553-.347828.5798084-.866066 1.0353154-1.371576 1.4742965-.60053.521496-1.205803 1.034059-1.671736 1.685212-.21337.298194.279735.582523.491136.287083.863798-1.207168 2.299273-1.890983 3.059479-3.1864648.899058-1.5321172.299084-3.3491037-.815103-4.5894443-.695316-.7740322-1.567191-1.3650952-2.422702-1.9458061-.303666-.206125-.588575.2864847-.287083.4911422z" fill="#e6e7e8"/><path d="m134.987802 92.8300442c1.35549.920109 2.862194 1.9554301 3.299012 3.634811.202918.7248087.10127 1.5010351-.281436 2.1491553-.347839.5798084-.866066 1.0353154-1.371562 1.4742965-.60053.521496-1.205804 1.034059-1.671737 1.685212-.213369.298194.279735.582523.491137.287083.863798-1.207168 2.299263-1.890983 3.059468-3.1864648.899069-1.5321172.299095-3.3491037-.815104-4.5894443-.695304-.7740322-1.567191-1.3650952-2.422701-1.9458061-.303667-.206125-.588576.2864847-.287084.4911422z" fill="#e6e7e8"/><path d="m89.8689442 51.1473594c.3014916-.2046612.0165824-.697269-.2870839-.4911441-.8554993.5807128-1.7273761 1.1717758-2.4227018 1.945808-1.1141868 1.2403407-1.7141686 3.0573253-.8151013 4.5894443.7602028 1.2954819 2.1956792 1.979297 3.0594772 3.1864672.2114034.2954376.7045061.0111086.4911366-.2870839-.4659312-.6511528-1.0712066-1.163716-1.6717363-1.685213-.5055082-.4389815-1.0237479-.8944866-1.3715757-1.4742969-.3827055-.6481196-.4843537-1.4243453-.2814358-2.1491534.4368163-1.6793923 1.9435214-2.7147134 3.2990115-3.6348111z" fill="#e6e7e8"/><path d="m85.1289579 51.1473594c.3014916-.2046612.0165824-.697269-.2870839-.4911441-.8554992.5807128-1.7273875 1.1717758-2.4227018 1.945808-1.1141982 1.2403407-1.7141686 3.0573253-.8151013 4.5894443.7602028 1.2954819 2.1956679 1.979297 3.0594659 3.1864672.2114034.2954376.704506.0111086.4911365-.2870839-.4659331-.6511528-1.0712066-1.163716-1.6717363-1.685213-.5054968-.4389815-1.0237251-.8944866-1.3715624-1.4742969-.3827054-.6481196-.4843537-1.4243453-.2814357-2.1491534.4368276-1.6793923 1.9435214-2.7147134 3.2990114-3.6348111z" fill="#e6e7e8"/></g><g transform="translate(125.40565 10)"><path d="m101.126125 97.3744792.002486-.1139816c.104483-3.8686714 1.905396-7.4955429 4.924292-9.9170709.841972-.6644241 1.764253-1.2201889 2.745082-1.6541809l.09354-.0416581.015958.1010839c.189947 1.206897.490742 2.4387294.630879 2.9854553l.939352-3.6654187.10437-.0301504c.979252-.2874521 2.034879.0498197 2.666058.8518026.658635.8022001.762992 1.9244034.263569 2.8342947-.218954.4079382-.434177.8335754-.642384 1.2451717-.715265 1.4144352-1.454868 2.8770289-2.532629 4.0133358-1.669319 1.7257317-4.02841 2.6057676-6.420133 2.3949683z" fill="#f2f2f2"/><path d="m89.41393 95.6793221-1.6344998-.0001635-.7777571-6.3051303 2.412584.0001635z" fill="#ffb6b6"/><path d="m89.471557 97.3845969-5.0267666-.0001897v-.0635713c.0000767-1.0805402.8760175-1.956467 1.9565577-1.9565266h.000121l.918203-.6965962 1.7131586.6967025.4388032.0000147z" fill="#2f2e41"/><path d="m106.334561 91.0741044-1.291411 1.0021226-4.480279-4.5041551 1.905962-1.4791447z" fill="#ffb6b6"/><path d="m107.425591 92.3858482-3.971135 3.0819587-.038978-.0502206c-.662465-.8536449-.50756-2.0826819.346007-2.7452485l.000095-.0000735.298247-1.1132817 1.780534-.5000294.346653-.2690359z" fill="#2f2e41"/><path d="m99.2637746 60.5677774s-.1115581 1.7070654-.2522624 4.1474007c-.023076.4002342.1130102.835021.0887307 1.2704063-.0161095.2888641-.1923526.569689-.2087254.8708802-.0172804.3178697.2260565.5992408.2087254.9279691-.0169337.3211763-.2945354.6895071-.3112811 1.0182697-.180212 3.537877-.8334412 7.773199-.1793142 8.9571673.3223767.5835009 5.2330164 8.6671829 5.2330164 8.6671829s-2.289445 3.4341669-2.943572 2.2894446c-.863959-1.5119279-7.5224605-8.5854171-7.5224605-9.9361894 0-1.349137-1.5404577-11.4603053-1.5404577-11.4603053l-1.0741321 5.9836857-.4925135 1.1855497.1547566.6960009-.3182884.9393166-.017197.9295701-.3098665 1.7261839s.9321228 13.4488515.4071941 13.8233392c-.5265723.376123-3.0760421 1.0515092-3.376916.376123-.2992746-.6753861-1.4456338-14.0359304-1.4456338-14.0359304s-.3139695-6.1226191-.654127-11.8135339c-.0196042-.3303341-.2518389-.7293516-.2698274-1.0547798-.0212591-.3777584.1259194-.8683438.1062956-1.2346648-.0212591-.4202668-.2076853-.716269-.2256738-1.1185572-.139002-3.1087386-.1602611-5.5584443.0882941-5.9312967.7506254-1.1250984 1.4260116-2.0245231 1.4260116-2.0245231s10.727683-2.62632 13.4292276.7489754z" fill="#2f2e41"/><path d="m89.6154012 28.373281 2.5866422-.1446406 1.949341 1.064075 5.4206803 30.6974531s-5.5413062 2.561249-8.975473 1.5800585c-3.4341669-.9811905-7.0506389-.9259315-7.0506389-.9259315l2.6352815-29.327443 2.1259128-1.962381z" fill="#e6e6e6"/><path d="m93.9306673 29.0241046 4.0037479 1.635033c1.2658866.0616957 2.3221068.9880317 2.5484318 2.235049l-.265658 7.9071806-1.4440031 3.7615574 1.0297317 8.5690917-.5391364 1.0792818.4658611 1.1016333c-.683831 1.1102481-.5446327 2.5650152-.1387976 4.1313828h-.4905953l-.9811905-.1635317s-2.1601972.7499811-2.6027632-1.9435864c-1.1584737-7.0506601-1.8126007-3.9435568-1.8126007-3.9435568l-.5702679-21.8760433z" fill="#3f3d56"/><path d="m88.4706789 29.027408-3.74012 3.9211742c-1.265886.0616964-2.3221053.9880322-2.5484298 2.235049l1.5461306 12.1593332-.7256182 4.6656019.3985546 1.0580095-.2886335 1.1958407.4521653 1.0936039-.3270635 1.4717858.4905953 2.1259128 2.4529763-.6541271-.0187735-1.7435902.654127-23.7121044z" fill="#3f3d56"/><path d="m75.9976852 49.1838234-5.0947877 3.6969624c-.5396161.0279822-.9810986.4396579-1.0466716.9760056-.0655731.5363476.2637266 1.042258.7807076 1.1994183.5169809.1571602 1.0721347-.0798798 1.316165-.5619771l6.9279262-3.6984342z" fill="#ffb6b6"/><path d="m83.074131 33.6062971c-.9683059.4466216-3.3603862 11.880837-4.0624395 12.123263-.7020532.2424261-.4340002.2059961-.5324921.4083846-.0984919.2023886-.1223136 1.1086308-.796277 1.2149837s-4.2348183 3.3526986-4.2348183 3.3526986l.902625 3.0088698s6.8522209-3.9147425 8.7415817-6.0825636c1.8893609-2.1678211 2.9066134-13.3162452 2.9066134-13.3162452l.1932537-1.1122268s-2.1497427-.0437857-3.1180469.4028359z" fill="#3f3d56"/><path d="m98.4399098 47.6741228-4.5403888 4.3599642c-.5306992.1016269-.9116365.5698918-.9031299 1.110167.0085067.5402753.4039972.9963153.9376329 1.0811841.5336356.0848688 1.0510909-.2259772 1.226788-.7369569l6.356051-4.6125161z" fill="#ffb6b6"/><path d="m99.1002429 34.5874876c-.8980052.5750431 2.5143561 8.9157938 1.8521251 9.2520985-.662232.3363046-.401695.2635003-.471536.4774702-.069841.2139698.03069 1.1149366-.6223529 1.3126007-.6530428.1976641-3.735685 3.9011497-3.735685 3.9011497l1.3062475 2.8568769s6.2514294-4.8164043 7.8260544-7.2225893c1.574624-2.4061849.549957-3.2186777.549957-3.2186777-1.953559-4.1491882-3.780754-10.9158738-6.5412702-10.4660323-.0000082 0 .7344636 2.5320619-.1635399 3.1071033z" fill="#3f3d56"/><circle cx="90.170155" cy="23.342106" fill="#ffb6b6" r="4.383719"/><path d="m94.6092799 26.1667536s-.9654915.2647284-1.5273473.4121114c.0290448-.4180918.2101154-.8094822.302066-1.2184898s.0719949-.890033-.2319714-1.1788235c-.3039663-.2887906-.937037-.1762742-.9860164.2392682-.2571493-.5498756-.5148306-1.1007541-.773044-1.6526356-.7362576 1.5154684-2.241484.2240205-3.8827115.6069399-.8372695.1972324-1.8866217.1125099-2.3289588-.6252424.2485798-.2086409.4580096-.4598907.6184771-.7419779-.2551169.0748566-.5205525.1084859-.786277.099617.0123259-.5355127.2841195-1.0316357.7287842-1.3302981.2360499-.1543331-.3482197-.703476-.142204-.8967803.4225317-.3945285.7060892-.1266194.9557123-.6466602.3283692-.6560992 1.0018084-1.0678298 1.7354611-1.0611177.7174024.0168841 2.0028797.0099601 2.2812156.6708901.8870748-.5807013 2.1219063-.4166299 2.9889942.1925357.7207122.5043712 1.5409286 2.0289123 1.7219452 2.8895407.1810198.860612-.2178962 3.4910661-.6741253 4.2411225z" fill="#2f2e41"/><path d="m40.3105773 16.5172288h-28.0699704c-1.0473649.0134565-1.9271181-.784668-2.0153931-1.8283929-.0367927-.5423963.1529417-1.0757711.5240106-1.4730813.3710689-.3973101.8902568-.6229908 1.4338994-.6232879h28.1274617c1.0837931 0 1.9623811.8785879 1.9623811 1.9623811 0 1.0837931-.878588 1.962381-1.9623811 1.962381z" fill="#387ed1"/><path d="m56.4571009 19.706098h-46.1546004c-.0903161 0-.1635318-.0732156-.1635318-.1635317s.0732157-.1635318.1635318-.1635318h46.1546004c.0903161 0 .1635318.0732157.1635318.1635318s-.0732157.1635317-.1635318.1635317z" fill="#e6e6e6"/><path d="m54.5378399 16.5989947h-42.3547242c-1.1289512 0-2.044147-.9151958-2.044147-2.0441469 0-1.1289512.9151958-2.044147 2.044147-2.044147h42.3547242c1.1289512 0 2.044147.9151958 2.044147 2.044147 0 1.1289511-.9151958 2.0441469-2.044147 2.0441469zm-42.3547242-3.7612303c-.948319 0-1.7170834.7687644-1.7170834 1.7170834s.7687644 1.7170834 1.7170834 1.7170834h42.3547242c.948319 0 1.7170835-.7687644 1.7170835-1.7170834s-.7687645-1.7170834-1.7170835-1.7170834z" fill="#3f3d56"/><path d="m27.7186323 31.8892137h-15.4780254c-1.0473649.0134565-1.9271181-.784668-2.0153931-1.828393-.0367927-.5423963.1529417-1.0757711.5240106-1.4730812s.8902568-.6229908 1.4338994-.6232879h15.5355167c1.0837931 0 1.962381.8785879 1.962381 1.962381 0 1.0837932-.8785879 1.9623811-1.962381 1.9623811z" fill="#387ed1"/><path d="m56.4571009 35.0780829h-46.1546004c-.0903161 0-.1635318-.0732157-.1635318-.1635318s.0732157-.1635317.1635318-.1635317h46.1546004c.0903161 0 .1635318.0732156.1635318.1635317s-.0732157.1635318-.1635318.1635318z" fill="#e6e6e6"/><path d="m54.5378399 31.9709796h-42.3547242c-1.1289512 0-2.044147-.9151958-2.044147-2.044147 0-1.1289511.9151958-2.0441469 2.044147-2.0441469h42.3547242c1.1289512 0 2.044147.9151958 2.044147 2.0441469 0 1.1289512-.9151958 2.044147-2.044147 2.044147zm-42.3547242-3.7612304c-.948319 0-1.7170833.7687645-1.7170833 1.7170834 0 .948319.7687643 1.7170835 1.7170833 1.7170835h42.3547242c.948319 0 1.7170835-.7687645 1.7170835-1.7170835 0-.9483189-.7687645-1.7170834-1.7170835-1.7170834z" fill="#3f3d56"/><path d="m48.487165 47.2611986h-36.2465581c-1.0473649.0134565-1.9271181-.7846681-2.0153931-1.828393-.0367927-.5423963.1529417-1.0757711.5240106-1.4730812s.8902568-.6229909 1.4338994-.6232879h36.3040494c1.0837931 0 1.9623811.8785879 1.9623811 1.962381s-.878588 1.9623811-1.9623811 1.9623811z" fill="#387ed1"/><path d="m56.4571009 50.4500678h-46.1546004c-.0903161 0-.1635318-.0732157-.1635318-.1635318s.0732157-.1635318.1635318-.1635318h46.1546004c.0903161 0 .1635318.0732157.1635318.1635318s-.0732157.1635318-.1635318.1635318z" fill="#e6e6e6"/><path d="m54.5378399 47.3429644h-42.3547242c-1.1289512 0-2.044147-.9151957-2.044147-2.0441469s.9151958-2.0441469 2.044147-2.0441469h42.3547242c1.1289512 0 2.044147.9151957 2.044147 2.0441469s-.9151958 2.0441469-2.044147 2.0441469zm-42.3547242-3.7612303c-.948319 0-1.7170834.7687644-1.7170834 1.7170834s.7687644 1.7170834 1.7170834 1.7170834h42.3547242c.948319 0 1.7170835-.7687644 1.7170835-1.7170834s-.7687645-1.7170834-1.7170835-1.7170834z" fill="#3f3d56"/><g fill="#ccc"><path d="m37.6472992 14.5226009h-.3270635v-12.59897688h23.6560129v.32706351h-23.3289494z"/><circle cx="61.987382" cy="1.953534" r="1.953534"/><path d="m26.2936166 29.8945858h.3270635v-7.202429h-23.65601293v.3270635h23.32894943z"/><circle cx="1.953534" cy="22.722067" r="1.953534"/><path d="m48.440395 45.821761h-.3270635v9.0012783h20.0583143v-.3270635h-19.7312508z"/><circle cx="69.182779" cy="54.793028" r="1.953534"/></g><path d="m114.399636 97.7052091-44.4397541.0502607c-.0696993.0002011-.1341908-.0368671-.1690989-.097195s-.0349081-.1347134 0-.1950413c.0349081-.060328.0993996-.0973962.1690989-.0971942l44.4397541-.0502582c.107538 0 .194714.0871764.194714.194714s-.087176.194714-.194714.194714z" fill="#cacaca"/><path d="m96.4967798 29.0278773c-.2119351-.3323493-.64962-.4361143-.9881979-.2342788.2403917-.3340594.0592688-.9049439-.3175214-1.1356986-.4268752-.2614481-.9661456-.2181383-1.4640197-.1661483l-4.0812473.4262815c-.4705626.0491462-.9541718.1021174-1.3730616.3220823-.4188899.219965-.7634807.6492473-.7392764 1.1217657-.3198995-.1173631-.6615104-.1636933-1.0011136-.1357739-.3354772.0528699-.6663134.2980677-.7021072.6358017-.0574406.5419589.5863758.854944 1.1107273 1.0035175.9736037.2758595 1.9472085.5517267 2.9208145.8276015l-.3001953.0641584c1.915948.1674698 3.8446348-.1115466 5.63457-.8151338.4101671-.1617149.825474-.3554003 1.1126701-.689929.2871961-.3345288.4125448-.8448312.1879585-1.2242462z" fill="#e6e6e6"/></g></g></svg>